<svg width="25" height="24" viewBox="0 0 25 24" fill="none" xmlns="http://www.w3.org/2000/svg"><path d="M19.2754 5.34C17.9808 4.714 16.5965 4.25905 15.1492 4C14.9715 4.33209 14.7639 4.77877 14.6207 5.1341C13.0822 4.89499 11.5579 4.89499 10.0478 5.1341C9.90466 4.77877 9.69229 4.33209 9.51296 4C8.06417 4.25905 6.67829 4.71567 5.38366 5.34331C2.77237 9.42136 2.06449 13.3981 2.41843 17.3184C4.15037 18.655 5.82884 19.467 7.47897 19.9984C7.8864 19.4189 8.24977 18.8028 8.56281 18.1536C7.96662 17.9195 7.3956 17.6306 6.85606 17.2952C6.9992 17.1856 7.13921 17.071 7.27448 16.9531C10.5653 18.5438 14.1409 18.5438 17.3924 16.9531C17.5293 17.071 17.6693 17.1856 17.8109 17.2952C17.2697 17.6322 16.6971 17.9211 16.101 18.1553C16.414 18.8028 16.7758 19.4205 17.1848 20C18.8365 19.4687 20.5165 18.6567 22.2485 17.3184C22.6638 12.7738 21.539 8.83355 19.2754 5.34ZM9.01114 14.9075C8.02326 14.9075 7.21312 13.9543 7.21312 12.7937C7.21312 11.6331 8.00596 10.6783 9.01114 10.6783C10.0163 10.6783 10.8265 11.6314 10.8092 12.7937C10.8107 13.9543 10.0163 14.9075 9.01114 14.9075ZM15.6558 14.9075C14.6679 14.9075 13.8578 13.9543 13.8578 12.7937C13.8578 11.6331 14.6506 10.6783 15.6558 10.6783C16.661 10.6783 17.4711 11.6314 17.4538 12.7937C17.4538 13.9543 16.661 14.9075 15.6558 14.9075Z" fill="black"/></svg>
