<svg width="25" height="24" viewBox="0 0 25 24" fill="none" xmlns="http://www.w3.org/2000/svg">
<path d="M12.3418 2C6.80745 2 2.3335 6.58331 2.3335 12.2535C2.3335 16.786 5.20011 20.6226 9.17687 21.9805C9.67407 22.0826 9.85619 21.7599 9.85619 21.4885C9.85619 21.2508 9.8398 20.436 9.8398 19.587C7.05574 20.1983 6.47599 18.3647 6.47599 18.3647C6.02857 17.1764 5.36564 16.871 5.36564 16.871C4.45442 16.2429 5.43202 16.2429 5.43202 16.2429C6.4428 16.3108 6.97319 17.2954 6.97319 17.2954C7.86781 18.857 9.30942 18.4158 9.88938 18.1441C9.97214 17.482 10.2374 17.0237 10.5191 16.7691C8.29864 16.5314 5.9624 15.6487 5.9624 11.7102C5.9624 10.5898 6.35983 9.67309 6.98957 8.96018C6.89022 8.7056 6.54216 7.65289 7.08914 6.24394C7.08914 6.24394 7.93419 5.97228 9.8396 7.29644C10.6554 7.07199 11.4967 6.95782 12.3418 6.95685C13.1868 6.95685 14.0483 7.07581 14.8437 7.29644C16.7494 5.97228 17.5944 6.24394 17.5944 6.24394C18.1414 7.65289 17.7931 8.7056 17.6938 8.96018C18.3401 9.67309 18.7211 10.5898 18.7211 11.7102C18.7211 15.6487 16.3849 16.5143 14.1478 16.7691C14.5125 17.0916 14.8271 17.7026 14.8271 18.6703C14.8271 20.0453 14.8108 21.1489 14.8108 21.4883C14.8108 21.7599 14.9931 22.0826 15.4901 21.9808C19.4668 20.6224 22.3335 16.786 22.3335 12.2535C22.3498 6.58331 17.8595 2 12.3418 2Z" fill="white"/>
</svg>
