<svg width="80" height="14" viewBox="0 0 80 14" fill="none" xmlns="http://www.w3.org/2000/svg">
<g clip-path="url(#clip0_386_141)">
<path d="M26.0883 11.4231C27.8774 11.4231 29.1384 10.454 29.1384 8.97038C29.151 7.69043 28.3407 6.94835 26.9892 6.4819L26.0625 6.15884C25.1232 5.83583 24.6726 5.56072 24.6726 4.93864C24.6726 4.31651 25.3417 3.95774 26.1141 3.95774C26.8349 3.95774 27.3883 4.23281 27.8516 4.74726L28.8941 3.80207C28.2249 3.04829 27.2598 2.64154 26.1273 2.64154C24.4283 2.64154 23.1547 3.55099 23.1547 5.03457C23.1547 6.19512 23.8623 6.93663 25.3165 7.4276L26.3206 7.76241C27.1956 8.06148 27.6205 8.44423 27.6205 9.0546C27.6205 9.68843 27.0029 10.1075 26.1405 10.1075C25.2523 10.1075 24.4931 9.70071 24.0171 9.01889L22.833 9.89209C23.3726 10.8127 24.621 11.4231 26.0883 11.4231ZM33.2366 11.3991C34.5882 11.3991 35.5916 10.8724 36.1708 10.0115L35.0899 9.29343C34.7424 9.82011 34.1633 10.2029 33.2498 10.2029C32.1689 10.2029 31.3322 9.56903 31.268 8.57587H36.3256C36.3382 8.38449 36.3382 8.2768 36.3382 8.14517C36.3382 6.21911 34.9356 5.17796 33.2366 5.17796C31.2806 5.17796 29.8775 6.52989 29.8775 8.28856C29.8775 10.1186 31.2801 11.3991 33.2366 11.3991ZM31.3317 7.61845C31.5376 6.73302 32.3484 6.29052 33.185 6.29052C34.0084 6.29052 34.755 6.75697 34.9092 7.61845H31.3317ZM43.6923 13.7799V5.2974H42.2766V6.09914C41.9165 5.62046 41.1441 5.17796 40.2174 5.17796C38.4541 5.17796 37.1158 6.57787 37.1158 8.28856C37.1158 9.99924 38.4541 11.3991 40.2174 11.3991C41.1441 11.3991 41.9165 10.9567 42.2766 10.4779V13.7799H43.6923ZM40.4749 10.2023C39.3424 10.2023 38.5574 9.36484 38.5574 8.28803C38.5574 7.21117 39.3424 6.37368 40.4749 6.37368C41.6074 6.37368 42.3924 7.21117 42.3924 8.28803C42.3924 9.36484 41.6074 10.2023 40.4749 10.2023ZM47.3554 11.3991C48.1789 11.3991 48.8609 11.0761 49.2346 10.4657V11.2792H50.6502V5.2974H49.2346V8.24057C49.2346 9.5328 48.5911 10.2029 47.6642 10.2029C46.8412 10.2029 46.3777 9.61649 46.3777 8.6596V5.2974H44.9619V8.87493C44.9619 10.406 45.8753 11.3991 47.3554 11.3991ZM55.0778 11.3991C56.4294 11.3991 57.4327 10.8724 58.0118 10.0115L56.931 9.29343C56.5833 9.82011 56.0042 10.2029 55.0907 10.2029C54.0099 10.2029 53.1735 9.56903 53.109 8.57587H58.1667C58.1792 8.38449 58.1792 8.2768 58.1792 8.14517C58.1792 6.21911 56.7766 5.17796 55.0778 5.17796C53.1216 5.17796 51.7185 6.52989 51.7185 8.28856C51.7185 10.1186 53.1211 11.3991 55.0778 11.3991ZM53.1726 7.61845C53.3784 6.73302 54.1894 6.29052 55.0258 6.29052C55.8493 6.29052 56.5958 6.75697 56.7502 7.61845H53.1726ZM59.248 11.2792H60.664V8.33602C60.664 7.04379 61.3846 6.37368 62.3239 6.37368C63.1474 6.37368 63.6621 6.93611 63.6621 7.89299V11.2787H65.0781V7.67762C65.0781 6.15831 64.1128 5.1769 62.6198 5.1769C61.7833 5.1769 61.0623 5.49996 60.664 6.11037V5.2974H59.248V11.2792ZM69.437 11.3991C70.7757 11.3991 71.8824 10.753 72.4356 9.74817L71.1999 9.12605C70.8906 9.73641 70.2605 10.1789 69.4366 10.1789C68.2913 10.1789 67.4808 9.35313 67.4808 8.28856C67.4808 7.22399 68.2913 6.39821 69.4366 6.39821C70.2601 6.39821 70.8906 6.8407 71.1999 7.45107L72.4356 6.82895C71.8824 5.82407 70.7757 5.17796 69.437 5.17796C67.5073 5.17796 66.0398 6.51818 66.0398 8.28856C66.0398 10.0589 67.5073 11.3991 69.437 11.3991ZM76.2525 11.3991C77.6041 11.3991 78.6074 10.8724 79.1866 10.0115L78.1058 9.29343C77.758 9.82011 77.1789 10.2029 76.2655 10.2029C75.1842 10.2029 74.3482 9.56903 74.2833 8.57587H79.3414C79.354 8.38449 79.354 8.2768 79.354 8.14517C79.354 6.21911 77.9514 5.17796 76.2525 5.17796C74.2958 5.17796 72.8932 6.52989 72.8932 8.28856C72.8932 10.1186 74.2958 11.3991 76.2525 11.3991ZM74.3473 7.61845C74.5532 6.73302 75.3641 6.29052 76.2006 6.29052C77.024 6.29052 77.7705 6.75697 77.9249 7.61845H74.3473Z" fill="black"/>
<path fill-rule="evenodd" clip-rule="evenodd" d="M0.666504 2.975V11.025C0.666504 12.668 2.08725 14 3.83984 14H16.1598C17.9124 14 19.3332 12.668 19.3332 11.025V2.975C19.3332 1.33195 17.9124 0 16.1598 0H3.83984C2.08725 0 0.666504 1.33195 0.666504 2.975ZM5.33317 3.5C5.33317 3.01675 4.9153 2.625 4.39983 2.625C3.88437 2.625 3.4665 3.01675 3.4665 3.5C3.4665 3.98325 3.88437 4.375 4.39983 4.375C4.9153 4.375 5.33317 3.98325 5.33317 3.5ZM4.39983 9.61943C4.9153 9.61943 5.33317 10.0112 5.33317 10.4944C5.33317 10.9777 4.9153 11.3694 4.39983 11.3694C3.88437 11.3694 3.4665 10.9777 3.4665 10.4944C3.4665 10.0112 3.88437 9.61943 4.39983 9.61943ZM16.5332 7C16.5332 6.51675 16.1153 6.125 15.5998 6.125C15.0844 6.125 14.6665 6.51675 14.6665 7C14.6665 7.48325 15.0844 7.875 15.5998 7.875C16.1153 7.875 16.5332 7.48325 16.5332 7ZM8.13318 2.625H15.5998C16.1153 2.625 16.5332 3.01675 16.5332 3.5C16.5332 3.98325 16.1153 4.375 15.5998 4.375H8.13318C7.61771 4.375 7.19984 3.98325 7.19984 3.5C7.19984 3.01675 7.61771 2.625 8.13318 2.625ZM15.5998 9.61943H8.13318C7.61771 9.61943 7.19984 10.0112 7.19984 10.4944C7.19984 10.9777 7.61771 11.3694 8.13318 11.3694H15.5998C16.1153 11.3694 16.5332 10.9777 16.5332 10.4944C16.5332 10.0112 16.1153 9.61943 15.5998 9.61943ZM4.39984 6.125H11.8665C12.382 6.125 12.7998 6.51675 12.7998 7C12.7998 7.48325 12.382 7.875 11.8665 7.875H4.39984C3.88437 7.875 3.46651 7.48325 3.46651 7C3.46651 6.51675 3.88437 6.125 4.39984 6.125Z" fill="black"/>
</g>
<defs>
<clipPath id="clip0_386_141">
<rect width="79.3333" height="14" fill="black" transform="translate(0.666504)"/>
</clipPath>
</defs>
</svg>